rotated_Sprint_05400001_forces_filt5Hz.mot
version=1
nRows=28
nColumns=19
inDegrees=yes
endheader
time	R_ground_force_vx	R_ground_force_vy	R_ground_force_vz	R_ground_force_px	R_ground_force_py	R_ground_force_pz	R_ground_torque_x	R_ground_torque_y	R_ground_torque_z	L_ground_force_vx	L_ground_force_vy	L_ground_force_vz	L_ground_force_px	L_ground_force_py	L_ground_force_pz	L_ground_torque_x	L_ground_torque_y	L_ground_torque_z	
0.000000	231.993984	1767.172375	-95.734305	  0.764938	  0.000000	 -0.265730	  0.000000	 64.129005	  0.000000	  0.000000	  0.000000	  0.000000	  0.604550	  0.000000	 -0.480320	  0.000000	  0.000000	  0.000000
0.000500	232.258163	1757.398500	-94.670366	  0.764387	  0.000000	 -0.265697	  0.000000	 63.414400	  0.000000	  0.000000	  0.000000	  0.000000	  0.605819	 -0.000000	 -0.478337	  0.000000	  0.000000	  0.000000
0.001000	232.514150	1747.547924	-93.606978	  0.763828	  0.000000	 -0.265663	  0.000000	 62.699532	  0.000000	  0.000000	  0.000000	  0.000000	  0.607089	 -0.000000	 -0.476355	  0.000000	  0.000000	  0.000000
0.001500	232.761703	1737.621357	-92.544393	  0.763262	  0.000000	 -0.265629	  0.000000	 61.984572	  0.000000	  0.000000	  0.000000	  0.000000	  0.608358	 -0.000000	 -0.474372	  0.000000	  0.000000	  0.000000
0.002000	233.000577	1727.619535	-91.482867	  0.762690	  0.000000	 -0.265594	  0.000000	 61.269695	  0.000000	  0.000000	  0.000000	  0.000000	  0.609627	 -0.000000	 -0.472390	  0.000000	  0.000000	  0.000000
0.002500	233.230525	1717.543222	-90.422652	  0.762110	  0.000000	 -0.265560	  0.000000	 60.555077	  0.000000	  0.000000	  0.000000	  0.000000	  0.610896	  0.000000	 -0.470407	  0.000000	  0.000000	  0.000000
0.003000	233.451296	1707.393212	-89.363998	  0.761523	  0.000000	 -0.265525	  0.000000	 59.840897	  0.000000	  0.000000	  0.000000	  0.000000	  0.612166	  0.000000	 -0.468424	  0.000000	  0.000000	  0.000000
0.003500	233.662636	1697.170322	-88.307155	  0.760929	  0.000000	 -0.265490	  0.000000	 59.127333	  0.000000	  0.000000	  0.000000	  0.000000	  0.613435	  0.000000	 -0.466442	  0.000000	  0.000000	  0.000000
0.004000	233.864289	1686.875400	-87.252367	  0.760327	  0.000000	 -0.265454	  0.000000	 58.414565	  0.000000	  0.000000	  0.000000	  0.000000	  0.614704	  0.000000	 -0.464459	  0.000000	  0.000000	  0.000000
0.004500	234.055998	1676.509318	-86.199875	  0.759718	  0.000000	 -0.265418	  0.000000	 57.702775	  0.000000	  0.000000	  0.000000	  0.000000	  0.615974	  0.000000	 -0.462477	  0.000000	  0.000000	  0.000000
0.005000	234.237503	1666.072978	-85.149917	  0.759101	  0.000000	 -0.265382	  0.000000	 56.992141	  0.000000	  0.000000	  0.000000	  0.000000	  0.617243	  0.000000	 -0.460494	  0.000000	  0.000000	  0.000000
0.005500	234.408546	1655.567308	-84.102726	  0.758477	  0.000000	 -0.265346	  0.000000	 56.282844	  0.000000	  0.000000	  0.000000	  0.000000	  0.618635	  0.000000	 -0.458514	  0.000000	  0.000000	  0.000000
0.006000	234.568865	1644.993262	-83.058531	  0.757845	  0.000000	 -0.265309	  0.000000	 55.575062	  0.000000	  0.000000	  0.000000	  0.000000	  0.620028	  0.000000	 -0.456535	  0.000000	  0.000000	  0.000000
0.006500	234.718198	1634.351825	-82.017555	  0.757205	  0.000000	 -0.265272	  0.000000	 54.868971	  0.000000	  0.000000	  0.000000	  0.000000	  0.621420	  0.000000	 -0.454555	  0.000000	  0.000000	  0.000000
0.007000	234.856285	1623.644006	-80.980022	  0.756557	  0.000000	 -0.265235	  0.000000	 54.164747	  0.000000	  0.000000	  0.000000	  0.000000	  0.622812	  0.000000	 -0.452575	  0.000000	  0.000000	  0.000000
0.007500	234.982862	1612.870844	-79.946147	  0.755902	  0.000000	 -0.265197	  0.000000	 53.462562	  0.000000	  0.000000	  0.000000	  0.000000	  0.624205	  0.000000	 -0.450596	  0.000000	  0.000000	  0.000000
0.008000	235.097670	1602.033403	-78.916145	  0.755238	  0.000000	 -0.265159	  0.000000	 52.762586	  0.000000	  0.000000	  0.000000	  0.000000	  0.625597	  0.000000	 -0.448616	  0.000000	  0.000000	  0.000000
0.008500	235.200446	1591.132774	-77.890228	  0.754566	  0.000000	 -0.265121	  0.000000	 52.064989	  0.000000	  0.000000	  0.000000	  0.000000	  0.626989	  0.000000	 -0.446636	  0.000000	  0.000000	  0.000000
0.009000	235.290933	1580.170076	-76.868607	  0.753886	  0.000000	 -0.265082	  0.000000	 51.369935	  0.000000	  0.000000	  0.000000	  0.000000	  0.628381	  0.000000	 -0.444656	  0.000000	  0.000000	  0.000000
0.009500	235.368872	1569.146455	-75.851488	  0.753198	  0.000000	 -0.265044	  0.000000	 50.677587	  0.000000	  0.000000	  0.000000	  0.000000	  0.629774	  0.000000	 -0.442677	  0.000000	  0.000000	  0.000000
0.010000	235.434009	1558.063081	-74.839077	  0.752502	  0.000000	 -0.265004	  0.000000	 49.988104	  0.000000	  0.000000	  0.000000	  0.000000	  0.631166	  0.000000	 -0.440697	  0.000000	  0.000000	  0.000000
0.010500	235.486090	1546.921153	-73.831577	  0.751797	  0.000000	 -0.264965	  0.000000	 49.301641	  0.000000	  0.000000	  0.000000	  0.000000	  0.632497	  0.000000	 -0.438812	  0.000000	  0.000000	  0.000000
0.011000	235.524866	1535.721897	-72.829188	  0.751083	  0.000000	 -0.264925	  0.000000	 48.618349	  0.000000	  0.000000	  0.000000	  0.000000	  0.633828	  0.000000	 -0.436927	  0.000000	  0.000000	  0.000000
0.011500	235.550090	1524.466560	-71.832107	  0.750361	  0.000000	 -0.264884	  0.000000	 47.938377	  0.000000	  0.000000	  0.000000	  0.000000	  0.635159	  0.000000	 -0.435043	  0.000000	  0.000000	  0.000000
0.012000	235.561517	1513.156421	-70.840527	  0.749630	  0.000000	 -0.264844	  0.000000	 47.261864	  0.000000	  0.000000	  0.000000	  0.000000	  0.636490	  0.000000	 -0.433158	  0.000000	  0.000000	  0.000000
0.012500	235.558908	1501.792777	-69.854636	  0.748890	  0.000000	 -0.264803	  0.000000	 46.588949	  0.000000	  0.000000	  0.000000	  0.000000	  0.637822	  0.000000	 -0.431273	  0.000000	  0.000000	  0.000000
0.013000	235.542026	1490.376955	-68.874617	  0.748141	  0.000000	 -0.264761	  0.000000	 45.919765	  0.000000	  0.000000	  0.000000	  0.000000	  0.639153	  0.000000	 -0.429388	  0.000000	  0.000000	  0.000000
0.013500	235.510638	1478.910300	-67.900646	  0.747383	  0.000000	 -0.264719	  0.000000	 45.254437	  0.000000	  0.000000	  0.000000	  0.000000	  0.640484	  0.000000	 -0.427503	  0.000000	  0.000000	  0.000000
